M48
; DRILL file {KiCad 6.0.6-1.fc36} date Wed 27 Jul 2022 02:29:51 CEST
; FORMAT={-:-/ absolute / inch / decimal}
; #@! TF.CreationDate,2022-07-27T02:29:51+02:00
; #@! TF.GenerationSoftware,Kicad,Pcbnew,6.0.6-1.fc36
; #@! TF.FileFunction,Plated,1,2,PTH
FMAT,2
INCH
; #@! TA.AperFunction,Plated,PTH,ViaDrill
T1C0.0157
; #@! TA.AperFunction,Plated,PTH,ComponentDrill
T2C0.0394
; #@! TA.AperFunction,Plated,PTH,ViaDrill
T3C0.0945
; #@! TA.AperFunction,Plated,PTH,ComponentDrill
T4C0.1063
%
G90
G05
T1
X4.5079Y-2.5984
X4.5669Y-2.5787
T2
X3.9195Y-3.4358
X3.9195Y-3.5358
X3.9195Y-3.6358
X3.9195Y-3.7358
X3.9195Y-3.8358
X3.9195Y-3.9358
X3.9195Y-4.0358
X3.9195Y-4.1358
X4.8195Y-3.4358
X4.8195Y-3.5358
X4.8195Y-3.6358
X4.8195Y-3.7358
X4.8195Y-3.8358
X4.8195Y-3.9358
X4.8195Y-4.0358
X4.8195Y-4.1358
X5.0181Y-4.3504
X5.0972Y-3.5949
X5.1181Y-4.3504
X5.1972Y-3.5949
X5.2972Y-3.5949
X5.3972Y-3.5949
T3
X3.7992Y-4.3307
X5.4528Y-1.7126
X5.4528Y-4.3307
T4
X5.1378Y-4.0157
X5.3346Y-4.0157
T0
M30
