%TF.GenerationSoftware,KiCad,Pcbnew,6.0.6-1.fc36*%
%TF.CreationDate,2022-07-27T02:29:56+02:00*%
%TF.ProjectId,breakout board,62726561-6b6f-4757-9420-626f6172642e,rev?*%
%TF.SameCoordinates,Original*%
%TF.FileFunction,Copper,L1,Top*%
%TF.FilePolarity,Positive*%
%FSLAX46Y46*%
G04 Gerber Fmt 4.6, Leading zero omitted, Abs format (unit mm)*
G04 Created by KiCad (PCBNEW 6.0.6-1.fc36) date 2022-07-27 02:29:56*
%MOMM*%
%LPD*%
G01*
G04 APERTURE LIST*
%TA.AperFunction,ComponentPad*%
%ADD10O,1.700000X1.700000*%
%TD*%
%TA.AperFunction,ComponentPad*%
%ADD11R,1.700000X1.700000*%
%TD*%
%TA.AperFunction,ComponentPad*%
%ADD12R,2.000000X2.000000*%
%TD*%
%TA.AperFunction,ComponentPad*%
%ADD13O,2.000000X1.600000*%
%TD*%
%TA.AperFunction,ComponentPad*%
%ADD14R,3.800000X3.800000*%
%TD*%
%TA.AperFunction,ComponentPad*%
%ADD15C,4.000000*%
%TD*%
%TA.AperFunction,SMDPad,CuDef*%
%ADD16R,0.740000X2.400000*%
%TD*%
%TA.AperFunction,ViaPad*%
%ADD17C,0.800000*%
%TD*%
%TA.AperFunction,ViaPad*%
%ADD18C,3.000000*%
%TD*%
%TA.AperFunction,Conductor*%
%ADD19C,0.250000*%
%TD*%
%TA.AperFunction,Conductor*%
%ADD20C,0.500000*%
%TD*%
G04 APERTURE END LIST*
D10*
%TO.P,J2,4,Pin_4*%
%TO.N,/BME_SDA*%
X137090000Y-91310000D03*
%TO.P,J2,3,Pin_3*%
%TO.N,/BME_SCL*%
X134550000Y-91310000D03*
%TO.P,J2,2,Pin_2*%
%TO.N,/GND*%
X132010000Y-91310000D03*
D11*
%TO.P,J2,1,Pin_1*%
%TO.N,/Vcc*%
X129470000Y-91310000D03*
%TD*%
D12*
%TO.P,U1,1,~{RST}*%
%TO.N,/RST*%
X99555000Y-87270000D03*
D13*
%TO.P,U1,2,A0*%
%TO.N,unconnected-(U1-Pad2)*%
X99555000Y-89810000D03*
%TO.P,U1,3,D0*%
%TO.N,/D0*%
X99555000Y-92350000D03*
%TO.P,U1,4,SCK/D5*%
%TO.N,unconnected-(U1-Pad4)*%
X99555000Y-94890000D03*
%TO.P,U1,5,MISO/D6*%
%TO.N,unconnected-(U1-Pad5)*%
X99555000Y-97430000D03*
%TO.P,U1,6,MOSI/D7*%
%TO.N,unconnected-(U1-Pad6)*%
X99555000Y-99970000D03*
%TO.P,U1,7,CS/D8*%
%TO.N,unconnected-(U1-Pad7)*%
X99555000Y-102510000D03*
%TO.P,U1,8,3V3*%
%TO.N,unconnected-(U1-Pad8)*%
X99555000Y-105050000D03*
%TO.P,U1,9,5V*%
%TO.N,/Vcc*%
X122415000Y-105050000D03*
%TO.P,U1,10,GND*%
%TO.N,/GND*%
X122415000Y-102510000D03*
%TO.P,U1,11,D4*%
%TO.N,unconnected-(U1-Pad11)*%
X122415000Y-99970000D03*
%TO.P,U1,12,D3*%
%TO.N,unconnected-(U1-Pad12)*%
X122415000Y-97430000D03*
%TO.P,U1,13,SDA/D2*%
%TO.N,/BME_SDA*%
X122415000Y-94890000D03*
%TO.P,U1,14,SCL/D1*%
%TO.N,/BME_SCL*%
X122415000Y-92350000D03*
%TO.P,U1,15,RX*%
%TO.N,/PMS_TX*%
X122415000Y-89810000D03*
%TO.P,U1,16,TX*%
%TO.N,/PMS_RX*%
X122415000Y-87270000D03*
%TD*%
D11*
%TO.P,J4,1,Pin_1*%
%TO.N,/D0*%
X130000000Y-110500000D03*
D10*
%TO.P,J4,2,Pin_2*%
%TO.N,/RST*%
X127460000Y-110500000D03*
%TD*%
D14*
%TO.P,J3,1,Pin_1*%
%TO.N,/GND*%
X135500000Y-102000000D03*
D15*
%TO.P,J3,2,Pin_2*%
%TO.N,/Vcc*%
X130500000Y-102000000D03*
%TD*%
D16*
%TO.P,J1,10,Pin_10*%
%TO.N,/PMS_Set*%
X105000000Y-49500000D03*
%TO.P,J1,9,Pin_9*%
%TO.N,/PMS_TX*%
X105000000Y-45600000D03*
%TO.P,J1,8,Pin_8*%
%TO.N,unconnected-(J1-Pad8)*%
X103730000Y-49500000D03*
%TO.P,J1,7,Pin_7*%
%TO.N,/PMS_RX*%
X103730000Y-45600000D03*
%TO.P,J1,6,Pin_6*%
%TO.N,unconnected-(J1-Pad6)*%
X102460000Y-49500000D03*
%TO.P,J1,5,Pin_5*%
%TO.N,/PMS_Reset*%
X102460000Y-45600000D03*
%TO.P,J1,4,Pin_4*%
%TO.N,/GND*%
X101190000Y-49500000D03*
%TO.P,J1,3,Pin_3*%
X101190000Y-45600000D03*
%TO.P,J1,2,Pin_2*%
%TO.N,/Vcc*%
X99920000Y-49500000D03*
%TO.P,J1,1,Pin_1*%
X99920000Y-45600000D03*
%TD*%
D17*
%TO.N,/GND*%
X116000000Y-65500000D03*
%TO.N,/Vcc*%
X114500000Y-66000000D03*
D18*
%TO.N,*%
X96500000Y-110000000D03*
X138500000Y-110000000D03*
X138500000Y-43500000D03*
%TD*%
D19*
%TO.N,/D0*%
X99555000Y-92350000D02*
X99850000Y-92350000D01*
X99850000Y-92350000D02*
X120000000Y-112500000D01*
X120000000Y-112500000D02*
X127785000Y-112500000D01*
X127785000Y-112500000D02*
X130285000Y-110000000D01*
D20*
%TO.N,/GND*%
X116000000Y-65500000D02*
X101190000Y-50690000D01*
X101190000Y-50690000D02*
X101190000Y-49500000D01*
%TO.N,/Vcc*%
X114500000Y-66000000D02*
X99920000Y-51420000D01*
X99920000Y-51420000D02*
X99920000Y-49500000D01*
X130500000Y-102000000D02*
X125500000Y-102000000D01*
X125500000Y-102000000D02*
X125465000Y-102000000D01*
D19*
%TO.N,/PMS_TX*%
X122415000Y-89810000D02*
X126315000Y-85910000D01*
X126315000Y-85910000D02*
X126315000Y-66915000D01*
X126315000Y-66915000D02*
X105000000Y-45600000D01*
%TO.N,/PMS_RX*%
X103730000Y-45600000D02*
X103730000Y-46430000D01*
X103730000Y-46430000D02*
X104425000Y-47125000D01*
X104425000Y-47125000D02*
X105625000Y-47125000D01*
X105625000Y-47125000D02*
X125865000Y-67365000D01*
X125865000Y-67365000D02*
X125865000Y-85551778D01*
X125865000Y-85551778D02*
X124146778Y-87270000D01*
X124146778Y-87270000D02*
X122415000Y-87270000D01*
%TO.N,/BME_SDA*%
X137090000Y-91310000D02*
X135915000Y-92485000D01*
X135915000Y-92485000D02*
X134063299Y-92485000D01*
X134063299Y-92485000D02*
X133375000Y-91796701D01*
X127305000Y-90000000D02*
X122415000Y-94890000D01*
X133375000Y-91796701D02*
X133375000Y-90875000D01*
X133375000Y-90875000D02*
X132500000Y-90000000D01*
X132500000Y-90000000D02*
X127305000Y-90000000D01*
%TO.N,/BME_SCL*%
X134550000Y-91310000D02*
X131740000Y-88500000D01*
X131740000Y-88500000D02*
X126265000Y-88500000D01*
X126265000Y-88500000D02*
X122415000Y-92350000D01*
D20*
%TO.N,/GND*%
X119500000Y-103500000D02*
X120500000Y-102500000D01*
X135500000Y-102000000D02*
X130049086Y-107450914D01*
X130049086Y-107450914D02*
X121950914Y-107450914D01*
X119500000Y-105000000D02*
X119500000Y-103500000D01*
X121950914Y-107450914D02*
X119500000Y-105000000D01*
X120500000Y-102500000D02*
X120510000Y-102510000D01*
X120510000Y-102510000D02*
X122415000Y-102510000D01*
X132010000Y-91310000D02*
X132010000Y-98510000D01*
X132010000Y-98510000D02*
X135500000Y-102000000D01*
%TO.N,/Vcc*%
X130500000Y-102000000D02*
X130500000Y-92340000D01*
X130500000Y-92340000D02*
X129470000Y-91310000D01*
X125465000Y-102000000D02*
X122415000Y-105050000D01*
D19*
%TO.N,/RST*%
X99555000Y-87270000D02*
X122285000Y-110000000D01*
X122285000Y-110000000D02*
X127745000Y-110000000D01*
%TO.N,/Vcc*%
X99920000Y-45600000D02*
X99920000Y-49500000D01*
%TO.N,/GND*%
X101190000Y-45600000D02*
X101190000Y-49500000D01*
%TD*%
M02*
