%TF.GenerationSoftware,KiCad,Pcbnew,6.0.6-1.fc36*%
%TF.CreationDate,2022-07-27T02:29:56+02:00*%
%TF.ProjectId,breakout board,62726561-6b6f-4757-9420-626f6172642e,rev?*%
%TF.SameCoordinates,Original*%
%TF.FileFunction,Copper,L2,Bot*%
%TF.FilePolarity,Positive*%
%FSLAX46Y46*%
G04 Gerber Fmt 4.6, Leading zero omitted, Abs format (unit mm)*
G04 Created by KiCad (PCBNEW 6.0.6-1.fc36) date 2022-07-27 02:29:56*
%MOMM*%
%LPD*%
G01*
G04 APERTURE LIST*
%TA.AperFunction,ComponentPad*%
%ADD10O,1.700000X1.700000*%
%TD*%
%TA.AperFunction,ComponentPad*%
%ADD11R,1.700000X1.700000*%
%TD*%
%TA.AperFunction,ComponentPad*%
%ADD12R,2.000000X2.000000*%
%TD*%
%TA.AperFunction,ComponentPad*%
%ADD13O,2.000000X1.600000*%
%TD*%
%TA.AperFunction,ComponentPad*%
%ADD14R,3.800000X3.800000*%
%TD*%
%TA.AperFunction,ComponentPad*%
%ADD15C,4.000000*%
%TD*%
%TA.AperFunction,ViaPad*%
%ADD16C,0.800000*%
%TD*%
%TA.AperFunction,ViaPad*%
%ADD17C,3.000000*%
%TD*%
%TA.AperFunction,Conductor*%
%ADD18C,0.500000*%
%TD*%
G04 APERTURE END LIST*
D10*
%TO.P,J2,4,Pin_4*%
%TO.N,/BME_SDA*%
X137090000Y-91310000D03*
%TO.P,J2,3,Pin_3*%
%TO.N,/BME_SCL*%
X134550000Y-91310000D03*
%TO.P,J2,2,Pin_2*%
%TO.N,/GND*%
X132010000Y-91310000D03*
D11*
%TO.P,J2,1,Pin_1*%
%TO.N,/Vcc*%
X129470000Y-91310000D03*
%TD*%
D12*
%TO.P,U1,1,~{RST}*%
%TO.N,/RST*%
X99555000Y-87270000D03*
D13*
%TO.P,U1,2,A0*%
%TO.N,unconnected-(U1-Pad2)*%
X99555000Y-89810000D03*
%TO.P,U1,3,D0*%
%TO.N,/D0*%
X99555000Y-92350000D03*
%TO.P,U1,4,SCK/D5*%
%TO.N,unconnected-(U1-Pad4)*%
X99555000Y-94890000D03*
%TO.P,U1,5,MISO/D6*%
%TO.N,unconnected-(U1-Pad5)*%
X99555000Y-97430000D03*
%TO.P,U1,6,MOSI/D7*%
%TO.N,unconnected-(U1-Pad6)*%
X99555000Y-99970000D03*
%TO.P,U1,7,CS/D8*%
%TO.N,unconnected-(U1-Pad7)*%
X99555000Y-102510000D03*
%TO.P,U1,8,3V3*%
%TO.N,unconnected-(U1-Pad8)*%
X99555000Y-105050000D03*
%TO.P,U1,9,5V*%
%TO.N,/Vcc*%
X122415000Y-105050000D03*
%TO.P,U1,10,GND*%
%TO.N,/GND*%
X122415000Y-102510000D03*
%TO.P,U1,11,D4*%
%TO.N,unconnected-(U1-Pad11)*%
X122415000Y-99970000D03*
%TO.P,U1,12,D3*%
%TO.N,unconnected-(U1-Pad12)*%
X122415000Y-97430000D03*
%TO.P,U1,13,SDA/D2*%
%TO.N,/BME_SDA*%
X122415000Y-94890000D03*
%TO.P,U1,14,SCL/D1*%
%TO.N,/BME_SCL*%
X122415000Y-92350000D03*
%TO.P,U1,15,RX*%
%TO.N,/PMS_TX*%
X122415000Y-89810000D03*
%TO.P,U1,16,TX*%
%TO.N,/PMS_RX*%
X122415000Y-87270000D03*
%TD*%
D11*
%TO.P,J4,1,Pin_1*%
%TO.N,/D0*%
X130000000Y-110500000D03*
D10*
%TO.P,J4,2,Pin_2*%
%TO.N,/RST*%
X127460000Y-110500000D03*
%TD*%
D14*
%TO.P,J3,1,Pin_1*%
%TO.N,/GND*%
X135500000Y-102000000D03*
D15*
%TO.P,J3,2,Pin_2*%
%TO.N,/Vcc*%
X130500000Y-102000000D03*
%TD*%
D16*
%TO.N,/GND*%
X116000000Y-65500000D03*
%TO.N,/Vcc*%
X114500000Y-66000000D03*
D17*
%TO.N,*%
X96500000Y-110000000D03*
X138500000Y-110000000D03*
X138500000Y-43500000D03*
%TD*%
D18*
%TO.N,/GND*%
X116000000Y-65500000D02*
X132010000Y-81510000D01*
X132010000Y-81510000D02*
X132010000Y-91310000D01*
%TO.N,/Vcc*%
X114500000Y-66000000D02*
X128500000Y-80000000D01*
X128500000Y-80000000D02*
X128500000Y-91000000D01*
X128500000Y-91000000D02*
X128810000Y-91310000D01*
X128810000Y-91310000D02*
X129470000Y-91310000D01*
%TD*%
M02*
